<?xml version="1.0" encoding="utf-8"?>
<!-- Generator: Adobe Illustrator 21.1.0, SVG Export Plug-In . SVG Version: 6.00 Build 0)  -->
<svg version="1.1" id="Layer_1" xmlns="http://www.w3.org/2000/svg" xmlns:xlink="http://www.w3.org/1999/xlink" x="0px" y="0px"
	 viewBox="0 0 792 612" style="enable-background:new 0 0 792 612;" xml:space="preserve">
<g>
	<g>
		<g>
			<path d="M525.8,152.2l-24,24l17.3,17.3L396,316.6L272.9,193.5l17.3-17.3l-24-24L225,193.5l171,171l171-171L525.8,152.2z
				 M543.1,127h-78.9V53H327.8v74h-78.9L396,274L543.1,127z"/>
		</g>
	</g>
	<g>
		<path d="M24.1,419.6h30.7V559H24.1V419.6z"/>
		<path d="M89.7,419.6h28.3l65.3,85.9v-85.9h30.3V559h-26.1l-67.5-88.6V559H89.7V419.6z"/>
		<path d="M279.5,447.9h-42.4v-28.3h115.5v28.3h-42.4V559h-30.7V447.9z"/>
		<path d="M411.2,418.6h28.3L499.2,559h-32.1l-12.7-31.3h-59L382.7,559h-31.3L411.2,418.6z M443.5,500.7l-18.5-45.2l-18.5,45.2
			H443.5z"/>
		<path d="M516.5,419.6h30.7v61l56.6-61h37L584,478.7l59.4,80.3h-36.8l-43.2-59.4l-16.1,16.7V559h-30.7V419.6z"/>
		<path d="M661.9,419.6h105v27.3h-74.7v28.3h65.7v27.3h-65.7v29.3h75.7V559h-106V419.6z"/>
	</g>
</g>
</svg>
